<svg viewBox="0 0 100 100" xmlns="http://www.w3.org/2000/svg" xmlns:xlink="http://www.w3.org/1999/xlink" width="100.000000" height="100.000000" fill="none">
	<rect id="фрейм 3" width="100.000000" height="100.000000" x="0.000000" y="0.000000" />
	<g id="Сочетание 19">
		<path id="Форма 2" d="M12.5005 44.9476C15.547 24.245 34.7993 9.93194 55.5019 12.9784C62.5652 14.0177 69.1911 17.0316 74.6163 21.6727L69.7325 26.5566C68.0955 28.1939 68.0959 30.8483 69.7334 32.4852C70.5193 33.2709 71.5851 33.7124 72.6964 33.7126L91.9218 33.7126C94.2371 33.7126 96.1139 31.8358 96.1139 29.5205L96.1139 10.2951C96.1134 7.97983 94.2361 6.10336 91.9208 6.10376C90.8096 6.10395 89.7437 6.54551 88.9579 7.33115L83.5077 12.7809C62.725 -5.74493 30.8589 -3.91543 12.3331 16.8673C5.76987 24.2299 1.51074 33.3562 0.0833026 43.1156C-0.479498 46.5755 1.86898 49.8366 5.32871 50.3994C5.64037 50.4501 5.95518 50.4774 6.27097 50.4813C9.43633 50.4471 12.0933 48.0868 12.5005 44.9476Z" fill="rgb(219,204,110)" fill-rule="nonzero" />
		<path id="Форма 3" d="M93.7283 50.4813C90.563 50.5155 87.906 52.8758 87.4988 56.015C84.4523 76.7176 65.2 91.0307 44.4974 87.9844C37.4341 86.9451 30.8082 83.9312 25.383 79.2901L30.2668 74.4063C31.9038 72.769 31.9034 70.1145 30.2659 68.4776C29.48 67.692 28.4141 67.2504 27.3029 67.2502L8.07786 67.2502C5.7626 67.2502 3.88574 69.1271 3.88574 71.4423L3.88574 90.6677C3.88633 92.983 5.76358 94.8595 8.07884 94.8591C9.1901 94.8589 10.256 94.4173 11.0418 93.6317L16.4916 88.1819C37.2694 106.71 69.1331 104.886 87.6611 84.1079C94.2279 76.7437 98.489 67.6143 99.916 57.8514C100.481 54.3918 98.1348 51.1292 94.6755 50.5641C94.3623 50.5128 94.0457 50.4851 93.7283 50.4813Z" fill="rgb(219,204,110)" fill-rule="nonzero" />
	</g>
</svg>
