<svg viewBox="0 0 100 100" xmlns="http://www.w3.org/2000/svg" xmlns:xlink="http://www.w3.org/1999/xlink" width="100.000000" height="100.000000" fill="none">
	<rect id="фрейм 1" width="100.000000" height="100.000000" x="0.000000" y="0.000000" />
	<path id="Форма 1" d="M58.837 49.9999L98.1689 10.6724C100.61 8.23087 100.61 4.27244 98.1689 1.83113C95.7274 -0.610376 91.7689 -0.610376 89.3276 1.83113L49.9999 41.1628L10.6724 1.83113C8.23087 -0.610376 4.27244 -0.610376 1.83113 1.83113C-0.610181 4.27263 -0.610376 8.23107 1.83113 10.6724L41.1628 49.9999L1.83113 89.3276C-0.610376 91.7691 -0.610376 95.7276 1.83113 98.1689C4.27263 100.61 8.23107 100.61 10.6724 98.1689L49.9999 58.837L89.3274 98.1689C91.7689 100.61 95.7274 100.61 98.1687 98.1689C100.61 95.7274 100.61 91.7689 98.1687 89.3276L58.837 49.9999Z" fill="rgb(255,0,0)" fill-rule="nonzero" />
</svg>
